<svg width="166" height="87" viewBox="0 0 166 87" fill="none" xmlns="http://www.w3.org/2000/svg">
<path d="M164.24 33.82C165.14 32.96 165.55 31.93 165.55 30.62C165.55 29.43 165.14 28.36 164.24 27.46C163.3 26.56 162.27 26.11 161.04 26.11C159.77 26.11 158.66 26.56 157.84 27.46C156.94 28.36 156.53 29.43 156.53 30.62C156.53 31.93 156.94 32.96 157.84 33.82C158.66 34.72 159.77 35.17 161.04 35.17C162.27 35.17 163.3 34.72 164.24 33.82ZM163.87 27.78C164.61 28.52 165.02 29.46 165.02 30.61C165.02 31.72 164.61 32.7 163.87 33.44C163.09 34.22 162.15 34.59 161.04 34.59C159.89 34.59 158.95 34.22 158.17 33.44C157.43 32.7 157.02 31.72 157.02 30.61C157.02 29.46 157.43 28.52 158.17 27.78C158.95 27 159.89 26.63 161.04 26.63C162.15 26.63 163.09 27 163.87 27.78Z" fill="black"/>
<path d="M95.25 30.29C95.25 28.85 94.7999 27.58 93.8999 26.6C92.9499 25.57 91.8099 25.04 90.3699 25.04C88.9699 25.04 87.79 25.57 86.84 26.6C85.9 27.58 85.45 28.86 85.45 30.29V58.61C85.45 60.05 85.9 61.32 86.84 62.3C87.79 63.33 88.9699 63.86 90.3699 63.86C91.8099 63.86 92.9499 63.33 93.8999 62.3C94.7999 61.32 95.25 60.04 95.25 58.61V30.29Z" fill="black"/>
<path d="M118.44 37.8001C117.74 38.2101 117.13 38.7401 116.72 39.3601C115.32 37.8001 113.43 36.9001 111.1 36.6101C108.97 36.3201 106.87 36.6501 104.9 37.4701C102.64 38.3701 100.8 39.8501 99.32 41.9901C97.8 44.0401 96.94 46.3001 96.73 48.6801C96.24 53.7701 98.08 57.9501 102.23 61.2801C103.96 62.7201 105.92 63.5801 108.1 63.7801C110.32 64.0701 112.41 63.66 114.46 62.63C115.2 62.3 115.94 61.8501 116.72 61.1901L117.95 62.42L118.36 62.7101C119.14 63.3301 120.04 63.6601 121.07 63.6601C122.34 63.6601 123.41 63.2101 124.27 62.2601C125.09 61.4001 125.5 60.25 125.5 58.85V41.8601C125.5 40.5501 125.09 39.4401 124.27 38.5801C123.41 37.6801 122.34 37.1801 121.07 37.1801C120 37.1801 119.14 37.3901 118.44 37.8001ZM116.72 50.2301C116.72 51.8301 116.14 53.1801 115.04 54.2901C113.89 55.4401 112.54 55.9701 110.98 55.9701C109.38 55.9701 107.98 55.4401 106.84 54.2901C105.69 53.1801 105.11 51.8301 105.11 50.2301C105.11 48.6701 105.69 47.2301 106.84 46.0801C107.99 44.9301 109.38 44.4001 110.98 44.4001C112.54 44.4001 113.89 44.9301 115.04 46.0801C116.14 47.2401 116.72 48.6701 116.72 50.2301Z" fill="black"/>
<path d="M139.58 32.91C139.58 31.56 139.17 30.49 138.35 29.63C137.49 28.69 136.42 28.24 135.15 28.24C133.88 28.24 132.81 28.69 131.99 29.63C131.17 30.49 130.76 31.56 130.76 32.91V59.13C130.76 60.44 131.17 61.55 131.99 62.46C132.81 63.4 133.88 63.85 135.15 63.85C136.42 63.85 137.49 63.4 138.35 62.46C139.17 61.56 139.58 60.45 139.58 59.13V32.91Z" fill="black"/>
<path d="M153.98 32.91C153.98 31.56 153.57 30.49 152.79 29.63C151.97 28.69 150.9 28.24 149.63 28.24C148.32 28.24 147.29 28.69 146.43 29.63C145.61 30.49 145.2 31.56 145.2 32.91V59.13C145.2 60.44 145.61 61.55 146.43 62.46C147.29 63.4 148.32 63.85 149.63 63.85C150.9 63.85 151.97 63.4 152.79 62.46C153.57 61.56 153.98 60.45 153.98 59.13V32.91Z" fill="black"/>
<path d="M157.35 37.51C156.49 36.69 155.38 36.28 153.98 36.28H130.75C129.44 36.28 128.33 36.69 127.39 37.51C126.49 38.33 126.03 39.36 126.03 40.63C126.03 41.94 126.48 43.01 127.39 43.79C128.33 44.61 129.44 45.02 130.75 45.02H153.98C155.38 45.02 156.48 44.61 157.35 43.79C158.25 43.01 158.75 41.94 158.75 40.63C158.74 39.36 158.25 38.33 157.35 37.51Z" fill="black"/>
<path d="M80.15 31.6C79.86 30.37 79.16 29.43 78.1 28.69C75.27 26.76 73.2601 25.57 71.9401 25.12C68.4901 23.89 65 23.56 61.56 24.18C57.99 24.8 54.87 26.27 52.16 28.65C49.41 30.99 47.52 33.82 46.41 37.15C45.34 40.35 45.06 43.76 45.63 47.41C46.16 50.65 47.64 53.69 50.06 56.52C52.44 59.35 55.15 61.36 58.35 62.64C61.67 63.91 65.16 64.2 68.82 63.46C72.47 62.76 75.59 61.24 78.18 58.86C83.06 54.22 84.91 49.13 83.76 43.55C83.55 42.61 83.02 41.78 82.2 41.17C81.42 40.6 80.48 40.27 79.37 40.27H68.45C67.18 40.27 66.11 40.68 65.21 41.5C64.35 42.24 63.94 43.26 63.94 44.5C63.94 45.69 64.35 46.72 65.21 47.45C66.11 48.23 67.18 48.6 68.45 48.6H74.36C74.44 48.6 74.57 48.72 74.65 48.93C74.73 49.09 74.73 49.3 74.65 49.46C74.12 50.81 73.26 52.04 72.15 53.07C70.96 54.1 69.65 54.75 68.25 55.12C66.2 55.69 64.1 55.53 62.01 54.67C60.04 53.89 58.4 52.54 57.13 50.69C55.94 49.01 55.24 47.08 54.95 44.86C54.7 42.6 55.03 40.55 55.94 38.83C56.68 37.48 57.66 36.33 58.85 35.3C60.16 34.23 61.52 33.54 62.91 33.17C66.03 32.31 69.4401 33.21 73.1301 35.92C74.1901 36.66 75.35 36.99 76.58 36.87C77.81 36.7 78.7501 36.09 79.4901 35.02C80.1901 33.98 80.4 32.83 80.15 31.6Z" fill="black"/>
<path d="M83.56 26.8C80.2 18.84 74.98 12.4 67.84 7.51C60.49 2.5 52.37 0 43.42 0C31.4 0 21.18 4.23 12.72 12.68C4.22 21.18 0 31.39 0 43.42C0 55.45 4.22 65.71 12.72 74.2C21.17 82.66 31.39 86.92 43.42 86.92C52.37 86.92 60.49 84.42 67.84 79.41C74.98 74.53 80.19 68.04 83.56 60.04C80.52 65.95 76.21 70.67 70.51 74.2C64.72 77.85 58.36 79.62 51.43 79.62C41.45 79.62 32.92 76.09 25.86 68.99C18.8 61.93 15.23 53.39 15.23 43.42C15.23 33.41 18.8 24.87 25.86 17.81C32.92 10.79 41.45 7.26 51.43 7.26C58.28 7.26 64.64 9.07 70.51 12.68C76.21 16.21 80.52 20.93 83.56 26.8Z" fill="black"/>
<path d="M160.1 31.15H160.96L162.27 33.33H163.17L161.73 31.11C162.63 30.99 163.08 30.49 163.08 29.72C163.08 28.74 162.46 28.24 161.23 28.24H159.34V33.33H160.08V31.15H160.1ZM160.1 30.37V28.93H161.21C161.91 28.93 162.28 29.14 162.28 29.63C162.28 30.12 161.87 30.37 161.13 30.37H160.1V30.37Z" fill="black"/>
<path d="M71.82 17.3601C76.21 19.8601 79.74 23.3101 82.45 27.6201C79.54 21.8801 75.39 17.2801 69.89 13.8701C64.31 10.3401 58.15 8.58008 51.42 8.58008C41.78 8.58008 33.57 11.9901 26.8 18.7601C20.03 25.5701 16.62 33.8201 16.62 43.4301C16.62 53.0701 20.03 61.2801 26.8 68.0501C33.57 74.8601 41.78 78.2701 51.42 78.2701C58.15 78.2701 64.31 76.5101 69.89 72.9801C75.39 69.5701 79.53 64.9801 82.45 59.2701C79.74 63.6201 76.21 67.0301 71.82 69.5301C67.22 72.1101 62.3 73.4701 57.05 73.4701C48.72 73.4701 41.66 70.5101 35.83 64.6501C29.96 58.8201 27 51.7601 27 43.4301C27 35.1801 29.95 28.0801 35.83 22.2901C41.66 16.3801 48.72 13.4701 57.05 13.4701C62.3 13.4601 67.22 14.7701 71.82 17.3601Z" fill="black"/>
<path d="M81.38 28.32C78.84 24.17 75.4299 20.93 71.1999 18.55C66.8099 16.01 62.0899 14.78 57.0399 14.78C49.1199 14.78 42.3499 17.57 36.7299 23.19C31.1099 28.73 28.3199 35.5 28.3199 43.42C28.3199 51.34 31.1099 58.11 36.7299 63.69C42.3499 69.27 49.1199 72.06 57.0399 72.06C62.0899 72.06 66.8099 70.83 71.1999 68.37C75.4299 65.91 78.84 62.62 81.38 58.52C78.96 61.93 75.9199 64.59 72.1899 66.52C68.4099 68.53 64.3499 69.52 60.0399 69.52C52.8199 69.52 46.6999 66.98 41.5699 61.89C36.4399 56.8 33.9399 50.64 33.9399 43.42C33.9399 36.24 36.4399 30.08 41.5699 24.95C46.6999 19.82 52.8199 17.32 60.0399 17.32C64.3499 17.32 68.4099 18.31 72.1899 20.28C75.9199 22.29 78.96 24.95 81.38 28.32Z" fill="black"/>
</svg>
