<svg width="87" height="87" viewBox="0 0 87 87" fill="none" xmlns="http://www.w3.org/2000/svg">
<path d="M81.15 31.6C80.86 30.37 80.16 29.43 79.1 28.69C76.27 26.76 74.2601 25.57 72.9401 25.12C69.4901 23.89 66 23.56 62.56 24.18C58.99 24.8 55.87 26.27 53.16 28.65C50.41 30.99 48.52 33.82 47.41 37.15C46.34 40.35 46.06 43.76 46.63 47.41C47.16 50.65 48.64 53.69 51.06 56.52C53.44 59.35 56.15 61.36 59.35 62.64C62.67 63.91 66.16 64.2 69.82 63.46C73.47 62.76 76.59 61.24 79.18 58.86C84.06 54.22 85.91 49.13 84.76 43.55C84.55 42.61 84.02 41.78 83.2 41.17C82.42 40.6 81.48 40.27 80.37 40.27H69.45C68.18 40.27 67.11 40.68 66.21 41.5C65.35 42.24 64.94 43.26 64.94 44.5C64.94 45.69 65.35 46.72 66.21 47.45C67.11 48.23 68.18 48.6 69.45 48.6H75.36C75.44 48.6 75.57 48.72 75.65 48.93C75.73 49.09 75.73 49.3 75.65 49.46C75.12 50.81 74.26 52.04 73.15 53.07C71.96 54.1 70.65 54.75 69.25 55.12C67.2 55.69 65.1 55.53 63.01 54.67C61.04 53.89 59.4 52.54 58.13 50.69C56.94 49.01 56.24 47.08 55.95 44.86C55.7 42.6 56.03 40.55 56.94 38.83C57.68 37.48 58.66 36.33 59.85 35.3C61.16 34.23 62.52 33.54 63.91 33.17C67.03 32.31 70.4401 33.21 74.1301 35.92C75.1901 36.66 76.35 36.99 77.58 36.87C78.81 36.7 79.7501 36.09 80.4901 35.02C81.1901 33.98 81.4 32.83 81.15 31.6Z" fill="black"/>
<path d="M84.56 26.8C81.2 18.84 75.98 12.4 68.84 7.51C61.49 2.5 53.37 0 44.42 0C32.4 0 22.18 4.23 13.72 12.68C5.22 21.18 1 31.39 1 43.42C1 55.45 5.22 65.71 13.72 74.2C22.17 82.66 32.39 86.92 44.42 86.92C53.37 86.92 61.49 84.42 68.84 79.41C75.98 74.53 81.19 68.04 84.56 60.04C81.52 65.95 77.21 70.67 71.51 74.2C65.72 77.85 59.36 79.62 52.43 79.62C42.45 79.62 33.92 76.09 26.86 68.99C19.8 61.93 16.23 53.39 16.23 43.42C16.23 33.41 19.8 24.87 26.86 17.81C33.92 10.79 42.45 7.26 52.43 7.26C59.28 7.26 65.64 9.07 71.51 12.68C77.21 16.21 81.52 20.93 84.56 26.8Z" fill="#ED1C24"/>
<path d="M72.8201 17.3601C77.2101 19.8601 80.7401 23.3101 83.4501 27.6201C80.5401 21.8801 76.3901 17.2801 70.8901 13.8701C65.3101 10.3401 59.1501 8.58008 52.4201 8.58008C42.7801 8.58008 34.5701 11.9901 27.8001 18.7601C21.0301 25.5701 17.6201 33.8201 17.6201 43.4301C17.6201 53.0701 21.0301 61.2801 27.8001 68.0501C34.5701 74.8601 42.7801 78.2701 52.4201 78.2701C59.1501 78.2701 65.3101 76.5101 70.8901 72.9801C76.3901 69.5701 80.5301 64.9801 83.4501 59.2701C80.7401 63.6201 77.2101 67.0301 72.8201 69.5301C68.2201 72.1101 63.3001 73.4701 58.0501 73.4701C49.7201 73.4701 42.6601 70.5101 36.8301 64.6501C30.9601 58.8201 28.0001 51.7601 28.0001 43.4301C28.0001 35.1801 30.9501 28.0801 36.8301 22.2901C42.6601 16.3801 49.7201 13.4701 58.0501 13.4701C63.3001 13.4601 68.2201 14.7701 72.8201 17.3601Z" fill="#ED1C24"/>
<path d="M83.2948 28.32C80.695 24.17 77.2048 20.93 72.8753 18.55C68.382 16.01 63.5509 14.78 58.3821 14.78C50.2757 14.78 43.3464 17.57 37.5942 23.19C31.842 28.73 28.9863 35.5 28.9863 43.42C28.9863 51.34 31.842 58.11 37.5942 63.69C43.3464 69.27 50.2757 72.06 58.3821 72.06C63.5509 72.06 68.382 70.83 72.8753 68.37C77.2048 65.91 80.695 62.62 83.2948 58.52C80.8179 61.93 77.7063 64.59 73.8886 66.52C70.0196 68.53 65.8641 69.52 61.4527 69.52C54.0628 69.52 47.7988 66.98 42.5481 61.89C37.2974 56.8 34.7386 50.64 34.7386 43.42C34.7386 36.24 37.2974 30.08 42.5481 24.95C47.7988 19.82 54.0628 17.32 61.4527 17.32C65.8641 17.32 70.0196 18.31 73.8886 20.28C77.7063 22.29 80.8179 24.95 83.2948 28.32Z" fill="#ED1C24"/>
</svg>
